<?xml version="1.0" standalone="no"?>
<!DOCTYPE svg PUBLIC "-//W3C//DTD SVG 1.1//EN" "http://www.w3.org/Graphics/SVG/1.1/DTD/svg11.dtd">
<svg version="1.1" xmlns="http://www.w3.org/2000/svg" viewBox="0 0 102.00003051757812 104.66665649414062" width="102.00003051757812" height="104.66665649414062"><!-- svg-source:excalidraw --><metadata></metadata><defs><style class="style-fonts">
      </style></defs><g stroke-linecap="round"><g transform="translate(68.66668701171875 33.33331298828125) rotate(0 -15.354140040476153 20.33368632859799)"><path d="M0 0 C0 0, 0 0, 0 0 M0 0 C0 0, 0 0, 0 0 M0 0 C0.55 -0.91, -0.33 0.67, 0 0 M0 0 C0.95 -0.88, 0.88 -0.31, 0 0 M0 0 C0.15 7.98, -0.31 17.23, 0 27.67 M0 0 C-0.41 9.18, 0.37 17.3, 0 27.67 M0 27.67 C-0.59 38.36, -5.86 42.91, -15.67 43.33 M0 27.67 C0.78 39.09, -5.73 42.55, -15.67 43.33 M-15.67 43.33 C-15.67 43.33, -15.67 43.33, -15.67 43.33 M-15.67 43.33 C-15.67 43.33, -15.67 43.33, -15.67 43.33 M-15.67 43.33 C-26.96 42.44, -30.99 37.66, -31.33 27.67 M-15.67 43.33 C-27.26 43.4, -31.65 37.81, -31.33 27.67 M-31.33 27.67 C-31.65 20.41, -30.57 13.47, -31.33 -2.67 M-31.33 27.67 C-31.41 17.63, -31.28 7.72, -31.33 -2.67" stroke="#1e1e1e" stroke-width="4" fill="none"></path></g><g transform="translate(68.66668701171875 33.33331298828125) rotate(0 -15.354140040476153 20.33368632859799)"><path d="M-23.44 18.94 C-24.35 14.89, -26.71 10.06, -31.33 -2.67 M-23.44 18.94 C-26.12 10.56, -29.69 2.5, -31.33 -2.67" stroke="#1e1e1e" stroke-width="4" fill="none"></path></g><g transform="translate(68.66668701171875 33.33331298828125) rotate(0 -15.354140040476153 20.33368632859799)"><path d="M-39.18 18.95 C-36.79 14.93, -35.87 10.1, -31.33 -2.67 M-39.18 18.95 C-35.92 10.57, -33.55 2.5, -31.33 -2.67" stroke="#1e1e1e" stroke-width="4" fill="none"></path></g></g><mask></mask><g stroke-linecap="round" transform="translate(10 10) rotate(0 41.00001525878906 42.33332824707031)"><path d="M35.41 0.66 C42.09 -0.99, 51.3 1.39, 57.82 4.41 C64.35 7.42, 70.48 12.4, 74.56 18.73 C78.63 25.07, 82.18 34.82, 82.29 42.41 C82.41 50.01, 79.27 57.9, 75.24 64.3 C71.22 70.7, 64.86 77.46, 58.15 80.8 C51.44 84.14, 42.42 85.46, 34.98 84.34 C27.53 83.23, 18.93 79.08, 13.48 74.11 C8.03 69.14, 4.35 61.64, 2.27 54.53 C0.19 47.41, -1.03 38.82, 1.02 31.43 C3.06 24.04, 7.86 15.42, 14.55 10.2 C21.24 4.98, 35.88 1.46, 41.18 0.09 C46.47 -1.27, 46.25 1.42, 46.31 2.02 M44.22 -0.55 C51.62 -0.84, 60.26 2.77, 66.11 7.21 C71.97 11.64, 77.08 18.85, 79.35 26.05 C81.62 33.24, 81.11 42.65, 79.72 50.4 C78.33 58.14, 75.89 67.18, 70.99 72.5 C66.1 77.83, 57.68 80.97, 50.33 82.34 C42.99 83.71, 33.95 82.95, 26.93 80.73 C19.9 78.52, 12.82 75, 8.19 69.05 C3.57 63.1, -0.11 52.73, -0.81 45.06 C-1.52 37.38, 0.41 29.45, 3.95 23 C7.49 16.55, 13.73 10.03, 20.44 6.38 C27.15 2.73, 40.28 2.27, 44.22 1.12 C48.16 -0.03, 44.23 -0.81, 44.1 -0.51" stroke="#1e1e1e" stroke-width="4" fill="none"></path></g></svg>